# xmcd
#
# Track frame offsets:
#	150
#	5543
#	36393
#	58810
#	85564
#	108571
#	126940
#	153125
#	180368
#	224772
#	232798
#	278701
#
# Disc length: 4062 seconds
#
# Revision: 1
# Processed by: cddbd v1.5.1PL2 Copyright (c) Steve Scherf et al.
# Submitted via: EasyCDDAExtractor 9.0.0.1
#
DISCID=9b0fdc0c
DTITLE=Blue Oyster Cult - Stadthalle Tuttlingen 13-12-03
DYEAR=2003
DGENRE=Hard Rock
TTITLE0=Intro
TTITLE1=Buck's Boogie
TTITLE2=Od'd On Life Itself
TTITLE3=Dance On Stilts
TTITLE4=Burning For You
TTITLE5=See You In Black
TTITLE6=Black Blade
TTITLE7=Cities On Flame
TTITLE8=Godzilla (Bass and Drums Solo)
TTITLE9=Godzilla Reprise
TTITLE10=(Don't Fear) The Reaper
TTITLE11=Dominance And Submission
EXTD=
EXTT0=
EXTT1=
EXTT2=
EXTT3=
EXTT4=
EXTT5=
EXTT6=
EXTT7=
EXTT8=
EXTT9=
EXTT10=
EXTT11=
PLAYORDER=
